HIERARCHY
ROOT root
{
  OFFSET 0 95.9893 0
  CHANNELS 6 Xposition Yposition Zposition Zrotation Xrotation Yrotation
  JOINT torso_1
  {
    OFFSET 0 5.22546 -1.18466
    CHANNELS 6 Xposition Yposition Zposition Zrotation Xrotation Yrotation
    JOINT torso_2
    {
      OFFSET 0 5.77894 1.10239
      CHANNELS 6 Xposition Yposition Zposition Zrotation Xrotation Yrotation
      JOINT torso_3
      {
        OFFSET -1.0557e-17 6.16289 0.118334
        CHANNELS 6 Xposition Yposition Zposition Zrotation Xrotation Yrotation
        JOINT torso_4
        {
          OFFSET -1.13649e-17 6.69386 -0.456341
          CHANNELS 6 Xposition Yposition Zposition Zrotation Xrotation Yrotation
          JOINT torso_5
          {
            OFFSET -2.02997e-17 7.82529 -1.54945
            CHANNELS 6 Xposition Yposition Zposition Zrotation Xrotation Yrotation
            JOINT torso_6
            {
              OFFSET -2.60628e-17 9.77186 -0.940923
              CHANNELS 6 Xposition Yposition Zposition Zrotation Xrotation Yrotation
              JOINT torso_7
              {
                OFFSET -2.98794e-17 10.8563 1.62248
                CHANNELS 6 Xposition Yposition Zposition Zrotation Xrotation Yrotation
                JOINT neck_1
                {
                  OFFSET -1.32927e-17 4.92478 0.736013
                  CHANNELS 6 Xposition Yposition Zposition Zrotation Xrotation Yrotation
                  JOINT neck_2
                  {
                    OFFSET -1.86396e-17 4.96043 0.433981
                    CHANNELS 6 Xposition Yposition Zposition Zrotation Xrotation Yrotation
                    JOINT head
                    {
                      OFFSET -2.06766e-17 4.97002 0.787173
                      CHANNELS 6 Xposition Yposition Zposition Zrotation Xrotation Yrotation
                      End Site
                      {
                        OFFSET 0 0.1 0
                      }
                    }
                  }
                }
                JOINT l_shoulder
                {
                  OFFSET 1.26863 -7.82717 7.75148
                  CHANNELS 6 Xposition Yposition Zposition Zrotation Xrotation Yrotation
                  JOINT l_up_arm
                  {
                    OFFSET 13.3291 3.34342 -3.36319
                    CHANNELS 6 Xposition Yposition Zposition Zrotation Xrotation Yrotation
                    JOINT l_low_arm
                    {
                      OFFSET 30.0522 0.0615366 0.141
                      CHANNELS 6 Xposition Yposition Zposition Zrotation Xrotation Yrotation
                      JOINT l_hand
                      {
                        OFFSET 24.9344 0.0510561 0.116988
                        CHANNELS 6 Xposition Yposition Zposition Zrotation Xrotation Yrotation
                        End Site
                        {
                          OFFSET 0.1 0 0
                        }
                      }
                    }
                  }
                }
                JOINT r_shoulder
                {
                  OFFSET -1.26863 -7.82715 7.75138
                  CHANNELS 6 Xposition Yposition Zposition Zrotation Xrotation Yrotation
                  JOINT r_up_arm
                  {
                    OFFSET -13.3291 3.34342 -3.36319
                    CHANNELS 6 Xposition Yposition Zposition Zrotation Xrotation Yrotation
                    JOINT r_low_arm
                    {
                      OFFSET -30.0522 0.0615366 0.141
                      CHANNELS 6 Xposition Yposition Zposition Zrotation Xrotation Yrotation
                      JOINT r_hand
                      {
                        OFFSET -24.9344 0.0510559 0.116988
                        CHANNELS 6 Xposition Yposition Zposition Zrotation Xrotation Yrotation
                        End Site
                        {
                          OFFSET -0.1 0 0
                        }
                      }
                    }
                  }
                }
              }
            }
          }
        }
      }
    }
  }
  JOINT l_up_leg
  {
    OFFSET 9.50369 -4.32711 2.09145
    CHANNELS 6 Xposition Yposition Zposition Zrotation Xrotation Yrotation
    JOINT l_low_leg
    {
      OFFSET -0.876987 -39.8926 -0.674123
      CHANNELS 6 Xposition Yposition Zposition Zrotation Xrotation Yrotation
      JOINT l_foot
      {
        OFFSET -2.39345 -41.5694 -6.22357
        CHANNELS 6 Xposition Yposition Zposition Zrotation Xrotation Yrotation
        JOINT l_toes
        {
          OFFSET 0.801613 -10.1701 12.8571
          CHANNELS 6 Xposition Yposition Zposition Zrotation Xrotation Yrotation
          End Site
          {
            OFFSET 0 0 0.1
          }
        }
      }
    }
  }
  JOINT r_up_leg
  {
    OFFSET -9.50369 -4.32711 2.09145
    CHANNELS 6 Xposition Yposition Zposition Zrotation Xrotation Yrotation
    JOINT r_low_leg
    {
      OFFSET 0.876987 -39.8926 -0.674123
      CHANNELS 6 Xposition Yposition Zposition Zrotation Xrotation Yrotation
      JOINT r_foot
      {
        OFFSET 2.39345 -41.5694 -6.22357
        CHANNELS 6 Xposition Yposition Zposition Zrotation Xrotation Yrotation
        JOINT r_toes
        {
          OFFSET -0.801613 -10.1701 12.8571
          CHANNELS 6 Xposition Yposition Zposition Zrotation Xrotation Yrotation
          End Site
          {
            OFFSET 0 0 0.1
          }
        }
      }
    }
  }
}
MOTION
Frames: 4
Frame Time: 0.02
34.1787 94.6366 -52.4628 -0.627377 6.17366 -175.655 0 5.22546 -1.18466 0.35662 -0.442488 0.434383 0 5.77894 1.10239 0.135869 0.627835 0.518458 -1.0557e-17 6.16289 0.118334 -0.0591451 1.60278 0.630457 -1.13649e-17 6.69386 -0.456341 -0.262801 2.95289 0.646509 -2.02997e-17 7.82529 -1.54945 -0.381314 3.26946 0.699824 -2.60628e-17 9.77186 -0.940923 -0.257544 3.52657 0.84321 -2.98794e-17 10.8563 1.62248 -0.0171261 0.151195 0.0228607 -1.32927e-17 4.92478 0.736013 -0.993138 0.13602 -2.88842 -1.86396e-17 4.96043 0.433981 -3.22258 -5.73858 -1.2542 -2.06766e-17 4.97002 0.787173 -6.35048 0.870822 -1.70813 1.26863 -7.82717 7.75148 2.75433 0.975548 0.33343 13.3291 3.34342 -3.36319 -72.3813 31.3119 -3.39294 30.0522 0.0615366 0.141 10.9724 -16.7789 -114.444 24.9344 0.0510561 0.116988 -6.11091 -44.0621 -8.04539 -1.26863 -7.82715 7.75138 -2.30539 0.134107 -0.920364 -13.3291 3.34342 -3.36319 58.1668 49.228 19.4276 -30.0522 0.0615366 0.141 -11.2608 -16.107 110.859 -24.9344 0.0510559 0.116988 2.38605 -68.0105 2.97596 9.50369 -4.32711 2.09145 -1.80377 8.80531 -30.4264 -0.876987 -39.8926 -0.674123 -3.05141 11.3109 0.104122 -2.39345 -41.5694 -6.22357 -0.672299 -6.4463 16.1125 0.801613 -10.1701 12.8571 4.47266e-16 -7.82715e-16 3.05504e-33 -9.50369 -4.32711 2.09145 -3.66515 -10.9998 19.8627 0.876987 -39.8926 -0.674123 0.683248 2.55175 0.0293284 2.39345 -41.5694 -6.22357 7.91443 10.8883 -16.2893 -0.801613 -10.1701 12.8571 -1.98785e-16 -5.8393e-16 -1.27595e-14 
34.9444 94.5497 -53.5903 -0.743093 5.80892 -174.985 0 5.22546 -1.18466 0.430991 -0.463872 0.409103 0 5.77894 1.10239 0.196227 0.578991 0.496988 -1.0557e-17 6.16289 0.118334 -0.0161421 1.52651 0.609345 -1.13649e-17 6.69386 -0.456341 -0.235285 2.8278 0.623398 -2.02997e-17 7.82529 -1.54945 -0.374962 3.11966 0.67559 -2.60628e-17 9.77186 -0.940923 -0.273509 3.36589 0.830744 -2.98794e-17 10.8563 1.62248 -0.0181528 0.151666 0.0242267 -1.32927e-17 4.92478 0.736013 -0.951738 0.407371 -2.6021 -1.86396e-17 4.96043 0.433981 -3.34071 -5.7004 -1.128 -2.06766e-17 4.97002 0.787173 -6.512 0.819756 -1.79007 1.26863 -7.82717 7.75148 2.92833 1.02196 0.566287 13.3291 3.34342 -3.36319 -73.0391 31.2969 -2.67463 30.0522 0.0615366 0.141 10.9587 -16.8081 -114.603 24.9344 0.0510561 0.116988 -6.40851 -44.3548 -8.20988 -1.26863 -7.82715 7.75138 -2.66689 0.185782 -1.09175 -13.3291 3.34342 -3.36319 58.1998 49.8203 19.4193 -30.0522 0.0615366 0.141 -11.2655 -16.0948 110.795 -24.9344 0.0510559 0.116988 2.51588 -67.9725 3.05603 9.50369 -4.32711 2.09145 -1.55412 8.17422 -30.6152 -0.876987 -39.8926 -0.674123 -3.47419 12.8392 0.165877 -2.39345 -41.5694 -6.22357 -1.11451 -6.46498 16.1898 0.801613 -10.1701 12.8571 8.44835e-16 -7.57867e-16 -2.48481e-17 -9.50369 -4.32711 2.09145 -3.67616 -10.7093 18.8694 0.876987 -39.8926 -0.674123 0.720955 2.6926 0.0300615 2.39345 -41.5694 -6.22357 7.44673 9.8844 -16.1559 -0.801613 -10.1701 12.8571 1.39149e-15 -6.4605e-16 -1.2834e-14 
35.7711 94.4717 -54.7631 -0.894895 5.40882 -174.147 0 5.22546 -1.18466 0.488155 -0.478784 0.375374 0 5.77894 1.10239 0.241969 0.534995 0.465046 -1.0557e-17 6.16289 0.118334 0.0146044 1.45574 0.576591 -1.13649e-17 6.69386 -0.456341 -0.217188 2.70754 0.587062 -2.02997e-17 7.82529 -1.54945 -0.377278 2.9726 0.640183 -2.60628e-17 9.77186 -0.940923 -0.297377 3.2083 0.810212 -2.98794e-17 10.8563 1.62248 -0.0192951 0.151892 0.0256407 -1.32927e-17 4.92478 0.736013 -0.921618 0.681026 -2.34459 -1.86396e-17 4.96043 0.433981 -3.44715 -5.67148 -1.01389 -2.06766e-17 4.97002 0.787173 -6.69279 0.7576 -1.8879 1.26863 -7.82717 7.75148 3.11726 1.08521 0.78233 13.3291 3.34342 -3.36319 -73.5609 31.3984 -2.10774 30.0522 0.0615366 0.141 10.9375 -16.8528 -114.845 24.9344 0.0510561 0.116988 -6.52379 -44.4959 -8.22435 -1.26863 -7.82715 7.75138 -2.99037 0.246329 -1.22303 -13.3291 3.34342 -3.36319 58.2893 50.3834 19.3678 -30.0522 0.0615366 0.141 -11.2621 -16.1035 110.841 -24.9344 0.0510559 0.116988 2.43785 -67.8122 2.89436 9.50369 -4.32711 2.09145 -1.33101 7.31524 -30.8716 -0.876987 -39.8926 -0.674123 -3.98091 14.6494 0.254653 -2.39345 -41.5694 -6.22357 -1.60728 -6.22841 16.2437 0.801613 -10.1701 12.8571 8.44835e-16 -7.57867e-16 -2.48481e-17 -9.50369 -4.32711 2.09145 -3.71305 -10.3985 17.8062 0.876987 -39.8926 -0.674123 0.761995 2.84588 0.0307539 2.39345 -41.5694 -6.22357 6.89254 8.43437 -15.9887 -0.801613 -10.1701 12.8571 -1.98785e-16 -5.8393e-16 -1.27595e-14 
36.6417 94.4091 -55.9471 -1.02041 5.11545 -173.22 0 5.22546 -1.18466 0.556259 -0.469397 0.338323 0 5.77894 1.10239 0.294552 0.512414 0.434435 -1.0557e-17 6.16289 0.118334 0.0469498 1.4075 0.544597 -1.13649e-17 6.69386 -0.456341 -0.202266 2.61041 0.552024 -2.02997e-17 7.82529 -1.54945 -0.386429 2.84377 0.607556 -2.60628e-17 9.77186 -0.940923 -0.330681 3.06931 0.796574 -2.98794e-17 10.8563 1.62248 -0.0204601 0.151673 0.027349 -1.32927e-17 4.92478 0.736013 -0.909164 0.897754 -2.15253 -1.86396e-17 4.96043 0.433981 -3.55243 -5.61894 -0.93032 -2.06766e-17 4.97002 0.787173 -6.89208 0.769895 -1.92208 1.26863 -7.82717 7.75148 3.29633 1.15928 0.915264 13.3291 3.34342 -3.36319 -73.8748 31.4479 -1.82884 30.0522 0.0615366 0.141 10.9217 -16.8858 -115.025 24.9344 0.0510561 0.116988 -6.56695 -44.5941 -8.12617 -1.26863 -7.82715 7.75138 -3.21669 0.312541 -1.25785 -13.3291 3.34342 -3.36319 58.3531 50.7397 19.3029 -30.0522 0.0615366 0.141 -11.2582 -16.1136 110.894 -24.9344 0.0510559 0.116988 2.2658 -67.7005 2.61496 9.50369 -4.32711 2.09145 -1.07363 6.32481 -31.0154 -0.876987 -39.8926 -0.674123 -4.58266 16.7641 0.380611 -2.39345 -41.5694 -6.22357 -2.14715 -5.62543 16.2573 0.801613 -10.1701 12.8571 4.96962e-17 -7.95139e-16 1.2424e-17 -9.50369 -4.32711 2.09145 -3.66419 -10.0257 16.6461 0.876987 -39.8926 -0.674123 0.830504 3.10174 0.031665 2.39345 -41.5694 -6.22357 6.27941 6.91465 -15.8224 -0.801613 -10.1701 12.8571 -9.93923e-16 -5.46658e-16 -1.27222e-14 
